<svg id="Actual" xmlns="http://www.w3.org/2000/svg" width="32" height="32" viewBox="0 0 32 32">
  <g id="Path" transform="translate(6 6)" fill="none" stroke-linejoin="round" stroke-miterlimit="10">
    <path d="M0,1A1,1,0,0,1,1,0H19a1,1,0,0,1,1,1V19a1,1,0,0,1-1,1H1a1,1,0,0,1-1-1Z" stroke="none"/>
    <path d="M 1 1 L 1 19 L 19 19 L 19 1 L 1 1 M 1 0 L 19 0 C 19.55228042602539 0 20 0.4477195739746094 20 1 L 20 19 C 20 19.55228042602539 19.55228042602539 20 19 20 L 1 20 C 0.4477195739746094 20 0 19.55228042602539 0 19 L 0 1 C 0 0.4477195739746094 0.4477195739746094 0 1 0 Z" stroke="none" fill="#000"/>
  </g>
  <g id="Group" transform="translate(10.5 10.5)">
    <path id="Path-2" data-name="Path" d="M0,0H3.9A.1.1,0,0,1,4,.1V4" transform="translate(7 0)" fill="none" stroke="#000" stroke-linecap="round" stroke-miterlimit="10" stroke-width="1"/>
    <path id="Path-3" data-name="Path" d="M0,4H3.9A.1.1,0,0,0,4,3.9V0" transform="translate(7 7)" fill="none" stroke="#000" stroke-linecap="round" stroke-miterlimit="10" stroke-width="1"/>
    <path id="Path-4" data-name="Path" d="M4,0H.1A.1.1,0,0,0,0,.1V4" transform="translate(0 0)" fill="none" stroke="#000" stroke-linecap="round" stroke-miterlimit="10" stroke-width="1"/>
    <path id="Path-5" data-name="Path" d="M4,4H.1A.1.1,0,0,1,0,3.9V0" transform="translate(0 7)" fill="none" stroke="#000" stroke-linecap="round" stroke-miterlimit="10" stroke-width="1"/>
  </g>
</svg>
