<svg id="Flip_V" data-name="Flip V" xmlns="http://www.w3.org/2000/svg" width="32" height="32" viewBox="0 0 32 32">
  <g id="Shape" transform="translate(23 6) rotate(90)" fill="none" stroke-miterlimit="10">
    <path d="M6.647,6.651a.5.5,0,0,1,0,.707L.853,13.147A.5.5,0,0,1,0,12.793V1.208A.5.5,0,0,1,.854.854Z" stroke="none"/>
    <path d="M 0.9999980926513672 2.415238380432129 L 0.9999980926513672 11.58681678771973 L 5.5857834815979 7.003786563873291 L 0.9999980926513672 2.415238380432129 M 0.5036101341247559 0.7066183090209961 C 0.6265120506286621 0.7066183090209961 0.7517795562744141 0.7522344589233398 0.8536581993103027 0.8541746139526367 L 6.646548271179199 6.650554656982422 C 6.841758251190186 6.845874309539795 6.841658115386963 7.162454605102539 6.646337985992432 7.357664585113525 L 0.8534483909606934 13.14706420898438 C 0.538416862487793 13.46190452575684 -1.9073486328125e-06 13.23878479003906 -1.9073486328125e-06 12.7934045791626 L -1.9073486328125e-06 1.207624435424805 C -1.9073486328125e-06 0.9062175750732422 0.2465829849243164 0.7066183090209961 0.5036101341247559 0.7066183090209961 Z" stroke="none" fill="#000"/>
  </g>
  <path id="Shape_Copy" data-name="Shape Copy" d="M6.647-6.651a.5.5,0,0,0,0-.707L.853-13.147A.5.5,0,0,0,0-12.793V-1.208a.5.5,0,0,0,.854.353Z" transform="translate(23 26) rotate(-90)"/>
  <g id="Rectangle" transform="translate(26 15.5) rotate(90)" fill="none" stroke="#000" stroke-miterlimit="10" stroke-width="1">
    <rect width="1" height="20" rx="0.5" stroke="none"/>
    <rect x="0.5" y="0.5" height="19" fill="none"/>
  </g>
</svg>
