<svg id="Upload" xmlns="http://www.w3.org/2000/svg" width="56" height="34" viewBox="0 0 56 34">
  <g id="Path" fill="none" stroke-linejoin="round" stroke-miterlimit="10">
    <path d="M48.29,15.913A13.539,13.539,0,0,0,45.284,4.991,13.988,13.988,0,0,0,37.134.242,14.14,14.14,0,0,0,27.78,1.713a13.791,13.791,0,0,0-6.24,7.012,6.667,6.667,0,0,0-6.9-.626,6.541,6.541,0,0,0-2.66,2.392A6.4,6.4,0,0,0,11,13.9v.345h-.666a10.186,10.186,0,0,0-3.931.667,10.059,10.059,0,0,0-3.356,2.121A9.874,9.874,0,0,0,.792,20.276a9.732,9.732,0,0,0,0,7.693,9.874,9.874,0,0,0,2.252,3.239A10.059,10.059,0,0,0,6.4,33.329,10.184,10.184,0,0,0,10.331,34h36.4A9.328,9.328,0,0,0,53,31.6a8.992,8.992,0,0,0,1.057-12.28,9.272,9.272,0,0,0-5.77-3.394Z" stroke="none"/>
    <path d="M 34.52632904052734 -3.814697265625e-06 L 34.52632904052734 1.999996185302734 C 32.50566864013672 1.999996185302734 30.50339698791504 2.508218765258789 28.73598670959473 3.469724655151367 C 26.30419731140137 4.792642593383789 24.40883255004883 6.921255111694336 23.39902114868164 9.463418960571289 C 23.16959762573242 10.04097175598145 22.68473815917969 10.47906684875488 22.08695220947266 10.6489372253418 C 21.48915863037109 10.81879234313965 20.84637069702148 10.70111274719238 20.34753799438477 10.33050155639648 C 19.66495132446289 9.823360443115234 18.85289001464844 9.514396667480469 17.99909210205078 9.436985015869141 C 17.1510009765625 9.360090255737305 16.2802848815918 9.52093505859375 15.51973724365234 9.894514083862305 C 14.7570686340332 10.26913642883301 14.11820983886719 10.84300804138184 13.67229080200195 11.55399513244629 C 13.22933959960938 12.26034927368164 12.99606704711914 13.07147789001465 12.99771499633789 13.90365409851074 L 12.99771499633789 14.24832534790039 C 12.99771499633789 15.35289001464844 12.10227966308594 16.24832534790039 10.99771499633789 16.24832534790039 L 10.33132553100586 16.24832534790039 C 10.31218719482422 16.24832534790039 10.29304504394531 16.24805450439453 10.2739143371582 16.24750137329102 C 10.19618606567383 16.24526596069336 10.11710357666016 16.24413681030273 10.03885650634766 16.24413681030273 C 9.034572601318359 16.24413681030273 8.050975799560547 16.42561912536621 7.115398406982422 16.78353691101074 C 6.106525421142578 17.16951370239258 5.201786041259766 17.7409839630127 4.426372528076172 18.48200798034668 C 3.653362274169922 19.2208080291748 3.048961639404297 20.08987808227539 2.629962921142578 21.06507873535156 C 2.211952209472656 22.03797149658203 1.999996185302734 23.06649017333984 1.999996185302734 24.12205505371094 C 1.999996185302734 25.17769050598145 2.211952209472656 26.20623016357422 2.629962921142578 27.17912483215332 C 3.048961639404297 28.15432548522949 3.653362274169922 29.02338409423828 4.426303863525391 29.76212501525879 C 5.201786041259766 30.50321960449219 6.106525421142578 31.0746898651123 7.115364074707031 31.46065521240234 C 8.050868988037109 31.81853675842285 9.034267425537109 31.99999618530273 10.03824615478516 31.99999618530273 C 10.11649322509766 31.99999618530273 10.19573974609375 31.99885559082031 10.27382278442383 31.99660873413086 C 10.29298782348633 31.99605560302734 10.31214904785156 31.99578475952148 10.33132553100586 31.99578475952148 L 46.75627899169922 31.99580764770508 C 48.57930374145508 31.99580764770508 50.32191467285156 31.3294792175293 51.66311645507812 30.11953735351562 C 53.00077438354492 28.9128303527832 53.82159805297852 27.27077293395996 53.97437286376953 25.49587821960449 C 54.12698745727539 23.72280883789062 53.59951400756836 21.97074890136719 52.48910522460938 20.56240844726562 C 51.37217330932617 19.14570236206055 49.76476287841797 18.201171875 47.96298599243164 17.90280914306641 C 46.9976692199707 17.74296188354492 46.28972625732422 16.90814971923828 46.28972625732422 15.92967796325684 L 46.28972625732422 15.91286659240723 C 46.28972625732422 15.80474853515625 46.29849243164062 15.69680786132812 46.31594085693359 15.59010124206543 C 46.41463470458984 14.98660850524902 46.4661750793457 14.37066650390625 46.46913909912109 13.76184272766113 C 46.47909164428711 11.0383129119873 45.51370239257812 8.379795074462891 43.75076293945312 6.275995254516602 C 41.98186874389648 4.165031433105469 39.50110626220703 2.720266342163086 36.76544189453125 2.207843780517578 C 36.02919769287109 2.069948196411133 35.27590179443359 2.000019073486328 34.52648162841797 1.999996185302734 L 34.52632904052734 -3.814697265625e-06 M 34.52653503417969 0 C 35.39614105224609 1.52587890625e-05 36.26911163330078 0.08009719848632812 37.13364410400391 0.2420310974121094 C 40.33033752441406 0.8408088684082031 43.21356201171875 2.520959854125977 45.28371429443359 4.991455078125 C 47.35396194458008 7.461984634399414 48.4808349609375 10.56718444824219 48.4691276550293 13.76914978027344 C 48.46563339233398 14.48725509643555 48.40565490722656 15.20392608642578 48.28972625732422 15.91286659240723 L 48.28972625732422 15.92967796325684 C 50.57781982421875 16.30857276916504 52.63746643066406 17.52023124694824 54.0596923828125 19.32416152954102 C 55.48199844360352 21.12807846069336 56.16282272338867 23.39234924316406 55.96701049804688 25.66738510131836 C 55.77118682861328 27.94233703613281 54.71309280395508 30.06167793273926 53.00277328491211 31.60457229614258 C 51.29248046875 33.14746475219727 49.05512619018555 34.00107574462891 46.73482131958008 33.99578475952148 L 10.33132553100586 33.99578475952148 C 8.989048004150391 34.03437042236328 7.652454376220703 33.80747985839844 6.400760650634766 33.32863235473633 C 5.149127960205078 32.84978485107422 4.007843017578125 32.12865447998047 3.044502258300781 31.2080192565918 C 2.081161499023438 30.28731346130371 1.315349578857422 29.18578338623047 0.7923965454101562 27.96865463256836 C 0.2694435119628906 26.75152587890625 -3.814697265625e-06 25.44351387023926 -3.814697265625e-06 24.12205505371094 C -3.814697265625e-06 22.80068969726562 0.2694435119628906 21.49267959594727 0.7923965454101562 20.27554893493652 C 1.315349578857422 19.05841827392578 2.081161499023438 17.95689010620117 3.044502258300781 17.03617286682129 C 4.007843017578125 16.11554908752441 5.149127960205078 15.39441871643066 6.400760650634766 14.91557312011719 C 7.652454376220703 14.43672561645508 8.988979339599609 14.20983695983887 10.33132553100586 14.24832534790039 C 10.5534553527832 14.24832534790039 10.77558517456055 14.24832534790039 10.99771499633789 14.24832534790039 C 10.99771499633789 14.13063049316406 10.99771499633789 14.02134895324707 10.99771499633789 13.90365409851074 C 10.99532699584961 12.6987133026123 11.33483123779297 11.51688957214355 11.9779052734375 10.49143218994141 C 12.62104415893555 9.465984344482422 13.54227828979492 8.637584686279297 14.63797378540039 8.099384307861328 C 15.73366546630859 7.561183929443359 16.96025466918945 7.334550857543945 18.17973709106445 7.445159912109375 C 19.39913940429688 7.555713653564453 20.56301116943359 7.999008178710938 21.54029083251953 8.725090026855469 C 22.72492599487305 5.742807388305664 24.9323616027832 3.262149810791016 27.78023338317871 1.712865829467773 C 29.85789680480957 0.5825843811035156 32.18070220947266 -3.814697265625e-05 34.52653503417969 0 Z" stroke="none" fill="#000"/>
  </g>
  <path id="Path-2" data-name="Path" d="M.5,0V15" transform="translate(27.5 13)" fill="none" stroke="#000" stroke-linecap="round" stroke-miterlimit="10" stroke-width="2"/>
  <path id="Path_2" data-name="Path 2" d="M0,5.991,5,.009l5,5.982" transform="translate(23 13)" fill="none" stroke="#000" stroke-linecap="round" stroke-linejoin="round" stroke-miterlimit="10" stroke-width="2"/>
</svg>
